<svg xmlns="http://www.w3.org/2000/svg" viewBox="0 0 960 830" font-family="Arial, Helvetica, sans-serif">
  <defs>
    <filter id="shadow" x="-2%" y="-2%" width="104%" height="108%">
      <feDropShadow dx="0" dy="2" stdDeviation="3" flood-color="#1B3A4B" flood-opacity="0.1"/>
    </filter>
    <marker id="arr" viewBox="0 0 10 7" refX="10" refY="3.5" markerWidth="8" markerHeight="6" orient="auto">
      <path d="M 0 0 L 10 3.5 L 0 7 z" fill="#5A7A8A"/>
    </marker>
    <marker id="arrDk" viewBox="0 0 10 7" refX="10" refY="3.5" markerWidth="8" markerHeight="6" orient="auto">
      <path d="M 0 0 L 10 3.5 L 0 7 z" fill="#1B3A4B"/>
    </marker>
  </defs>

  <rect width="960" height="830" fill="#FAFBFC"/>
  <text x="480" y="35" text-anchor="middle" font-size="16" font-weight="bold" fill="#1B3A4B" letter-spacing="0.5">TARIDE terminology and relationships</text>

  <!-- HOLDER -->
  <rect x="370" y="60" width="220" height="70" rx="4" fill="#1B3A4B" filter="url(#shadow)"/>
  <text x="480" y="90" text-anchor="middle" font-size="14" font-weight="bold" fill="#FFFFFF">Holder</text>
  <text x="480" y="108" text-anchor="middle" font-size="10" fill="#A8C4D0">Person, business, or institution</text>

  <!-- DID -->
  <rect x="370" y="175" width="220" height="70" rx="4" fill="#24495C" filter="url(#shadow)"/>
  <text x="480" y="200" text-anchor="middle" font-size="14" font-weight="bold" fill="#FFFFFF">DID</text>
  <text x="480" y="218" text-anchor="middle" font-size="10" fill="#A8C4D0">Decentralised identifier</text>
  <text x="480" y="233" text-anchor="middle" font-size="9" fill="#A8C4D0">On-chain · pseudonymous · self-sovereign</text>

  <!-- Arrow holder creates DID -->
  <line x1="480" y1="130" x2="480" y2="175" stroke="#1B3A4B" stroke-width="1.5" marker-end="url(#arrDk)"/>
  <text x="490" y="156" font-size="9" fill="#5A7A8A">creates + owns</text>

  <!-- Private key -->
  <rect x="120" y="80" width="180" height="50" rx="4" fill="#F4F7F9" stroke="#1B3A4B" stroke-width="1.5" filter="url(#shadow)"/>
  <text x="210" y="102" text-anchor="middle" font-size="12" font-weight="bold" fill="#1B3A4B">Private key</text>
  <text x="210" y="118" text-anchor="middle" font-size="9" fill="#5A7A8A">Secure enclave · never leaves device</text>
  <line x1="300" y1="105" x2="370" y2="95" stroke="#5A7A8A" stroke-width="1" stroke-dasharray="4 2"/>
  <text x="330" y="93" font-size="8" fill="#8AA0AC">held by</text>

  <!-- Instances -->
  <rect x="90" y="190" width="210" height="115" rx="4" fill="#E8F0F4" stroke="#24495C" stroke-width="1.5" filter="url(#shadow)"/>
  <text x="195" y="212" text-anchor="middle" font-size="12" font-weight="bold" fill="#1B3A4B">Instances</text>
  <text x="195" y="228" text-anchor="middle" font-size="9" fill="#8AA0AC">Specific addresses per channel</text>
  <text x="105" y="248" font-size="9" fill="#5A7A8A">Telephony:</text>
  <text x="175" y="248" font-size="9" fill="#1B3A4B">+31 6 1234 5678</text>
  <text x="105" y="263" font-size="9" fill="#5A7A8A">Email:</text>
  <text x="175" y="263" font-size="9" fill="#1B3A4B">japie@google.com</text>
  <text x="105" y="278" font-size="9" fill="#5A7A8A">WhatsApp:</text>
  <text x="175" y="278" font-size="9" fill="#1B3A4B">@japie</text>
  <text x="195" y="296" text-anchor="middle" font-size="9" fill="#8AA0AC">One DID can have multiple instances</text>

  <!-- Arrow DID to instances -->
  <line x1="370" y1="210" x2="300" y2="220" stroke="#24495C" stroke-width="1.5" marker-end="url(#arrDk)"/>
  <text x="325" y="223" font-size="8" fill="#5A7A8A">links to</text>

  <!-- One instance one DID rule -->
  <rect x="90" y="310" width="210" height="36" rx="3" fill="#FFF8E1" stroke="#C8A415" stroke-width="1"/>
  <text x="195" y="333" text-anchor="middle" font-size="9" fill="#8A7212">Rule: 1 instance = max 1 DID at a time</text>

  <!-- RESOLVER (provider) -->
  <rect x="660" y="175" width="220" height="70" rx="4" fill="#FFFFFF" stroke="#1B3A4B" stroke-width="1.5" filter="url(#shadow)"/>
  <text x="770" y="200" text-anchor="middle" font-size="14" font-weight="bold" fill="#1B3A4B">Attestation provider</text>
  <text x="770" y="218" text-anchor="middle" font-size="10" fill="#5A7A8A">KPN · Odido · Google · Meta</text>
  <text x="770" y="233" text-anchor="middle" font-size="9" fill="#8AA0AC">Confirms ownership, does not own DID</text>

  <!-- Arrow provider issues credential -->
  <line x1="770" y1="245" x2="770" y2="290" stroke="#1B3A4B" stroke-width="1.5" marker-end="url(#arrDk)"/>
  <text x="780" y="272" font-size="9" fill="#5A7A8A">issues</text>

  <!-- VERIFICATION CREDENTIAL -->
  <rect x="620" y="290" width="300" height="80" rx="4" fill="#24495C" filter="url(#shadow)"/>
  <text x="770" y="315" text-anchor="middle" font-size="13" font-weight="bold" fill="#FFFFFF">Verification credential</text>
  <text x="770" y="335" text-anchor="middle" font-size="10" fill="#A8C4D0">Mandatory · on-chain · revocable</text>
  <text x="770" y="352" text-anchor="middle" font-size="9" fill="#A8C4D0">"Instance registered to DID holder"</text>

  <!-- Arrow credential linked to DID -->
  <line x1="620" y1="330" x2="590" y2="220" stroke="#5A7A8A" stroke-width="1" marker-end="url(#arr)"/>
  <text x="598" y="278" font-size="8" fill="#5A7A8A">linked to</text>

  <!-- Credential types -->
  <rect x="620" y="395" width="145" height="55" rx="3" fill="#E8F0F4" stroke="#24495C" stroke-width="1"/>
  <text x="692" y="415" text-anchor="middle" font-size="11" font-weight="bold" fill="#1B3A4B">Contract owner</text>
  <text x="692" y="432" text-anchor="middle" font-size="9" fill="#5A7A8A">Paying customer</text>
  <text x="692" y="444" text-anchor="middle" font-size="9" fill="#5A7A8A">Lifecycle events</text>

  <rect x="775" y="395" width="145" height="55" rx="3" fill="#E8F0F4" stroke="#24495C" stroke-width="1"/>
  <text x="847" y="415" text-anchor="middle" font-size="11" font-weight="bold" fill="#1B3A4B">End user</text>
  <text x="847" y="432" text-anchor="middle" font-size="9" fill="#5A7A8A">Actual device user</text>
  <text x="847" y="444" text-anchor="middle" font-size="9" fill="#5A7A8A">Real-time verification</text>

  <line x1="770" y1="370" x2="692" y2="395" stroke="#5A7A8A" stroke-width="1"/>
  <line x1="770" y1="370" x2="847" y2="395" stroke="#5A7A8A" stroke-width="1"/>
  <text x="770" y="388" text-anchor="middle" font-size="8" fill="#8AA0AC">two types</text>

  <!-- CREDENTIAL METADATA -->
  <rect x="620" y="470" width="300" height="55" rx="3" fill="#F4F7F9" stroke="#C8D6DC" stroke-width="1"/>
  <text x="770" y="490" text-anchor="middle" font-size="11" font-weight="bold" fill="#1B3A4B">Credential metadata</text>
  <text x="770" y="508" text-anchor="middle" font-size="9" fill="#5A7A8A">Prepaid/subscription · account age · ID level · last SIM swap · last reassignment</text>
  <line x1="770" y1="450" x2="770" y2="470" stroke="#C8D6DC" stroke-width="1" stroke-dasharray="3 2"/>

  <!-- OPTIONAL IDENTITY CREDENTIALS -->
  <rect x="350" y="310" width="230" height="60" rx="4" fill="#E8F0F4" stroke="#5A7A8A" stroke-width="1.5" stroke-dasharray="6 3" filter="url(#shadow)"/>
  <text x="465" y="335" text-anchor="middle" font-size="12" font-weight="bold" fill="#1B3A4B">Identity credentials</text>
  <text x="465" y="352" text-anchor="middle" font-size="9" fill="#5A7A8A">Optional · KvK · regulators · certifications</text>

  <line x1="465" y1="245" x2="465" y2="310" stroke="#5A7A8A" stroke-width="1" stroke-dasharray="4 2" marker-end="url(#arr)"/>
  <text x="475" y="280" font-size="8" fill="#8AA0AC">opt-in</text>

  <!-- RESOLVER NETWORK (expanded with role separation) -->
  <rect x="90" y="400" width="230" height="120" rx="4" fill="#FFFFFF" stroke="#1B3A4B" stroke-width="1.5" filter="url(#shadow)"/>
  <text x="205" y="420" text-anchor="middle" font-size="13" font-weight="bold" fill="#1B3A4B">Resolver network</text>
  <text x="205" y="436" text-anchor="middle" font-size="9" fill="#8AA0AC">Off-chain · distributed · DNS-like</text>

  <!-- Attestation provider sub-block -->
  <rect x="100" y="446" width="210" height="28" rx="3" fill="#E8F0F4" stroke="#24495C" stroke-width="1"/>
  <text x="110" y="464" font-size="9" font-weight="bold" fill="#1B3A4B">Attestation providers</text>
  <text x="310" y="464" text-anchor="end" font-size="8" fill="#5A7A8A">issue + revoke</text>

  <!-- Cache node sub-block -->
  <rect x="100" y="480" width="210" height="28" rx="3" fill="#E8F0F4" stroke="#24495C" stroke-width="1"/>
  <text x="110" y="498" font-size="9" font-weight="bold" fill="#1B3A4B">Cache nodes</text>
  <text x="310" y="498" text-anchor="end" font-size="8" fill="#5A7A8A">serve lookups</text>

  <line x1="205" y1="346" x2="205" y2="400" stroke="#5A7A8A" stroke-width="1" marker-end="url(#arr)"/>

  <!-- REPUTATION -->
  <rect x="90" y="560" width="230" height="60" rx="4" fill="#2E5A6E" filter="url(#shadow)"/>
  <text x="205" y="585" text-anchor="middle" font-size="12" font-weight="bold" fill="#FFFFFF">Reputation score</text>
  <text x="205" y="603" text-anchor="middle" font-size="9" fill="#A8C4D0">On-chain · aggregated · only opt-in DIDs</text>

  <line x1="205" y1="520" x2="205" y2="560" stroke="#5A7A8A" stroke-width="1" marker-end="url(#arr)"/>

  <!-- APPLICATIONS -->
  <rect x="370" y="440" width="200" height="55" rx="4" fill="#FFFFFF" stroke="#2E5A6E" stroke-width="1.5" filter="url(#shadow)"/>
  <text x="470" y="462" text-anchor="middle" font-size="12" font-weight="bold" fill="#1B3A4B">Applications</text>
  <text x="470" y="478" text-anchor="middle" font-size="9" fill="#5A7A8A">Calmido · third-party apps</text>

  <line x1="310" y1="494" x2="370" y2="470" stroke="#5A7A8A" stroke-width="1" marker-end="url(#arr)"/>
  <text x="332" y="490" font-size="8" fill="#8AA0AC">queries</text>

  <!-- BLOCKCHAIN -->
  <rect x="370" y="550" width="200" height="45" rx="4" fill="#1B3A4B" filter="url(#shadow)"/>
  <text x="470" y="570" text-anchor="middle" font-size="11" font-weight="bold" fill="#FFFFFF">Blockchain (L2 / EBSI)</text>
  <text x="470" y="584" text-anchor="middle" font-size="9" fill="#A8C4D0">DIDs · credentials · commitments</text>

  <!-- Consent layer -->
  <rect x="90" y="640" width="230" height="40" rx="4" fill="#2E5A6E" filter="url(#shadow)"/>
  <text x="205" y="656" text-anchor="middle" font-size="11" font-weight="bold" fill="#FFFFFF">Consent layer</text>
  <text x="205" y="672" text-anchor="middle" font-size="9" fill="#A8C4D0">Open · verified · established · trusted · contacts</text>
  <line x1="205" y1="620" x2="205" y2="640" stroke="#5A7A8A" stroke-width="1" marker-end="url(#arr)"/>

  <!-- TIME AS TRUST -->
  <rect x="90" y="700" width="780" height="75" rx="4" fill="#1B3A4B" filter="url(#shadow)"/>
  <text x="480" y="722" text-anchor="middle" font-size="13" font-weight="bold" fill="#FFFFFF">Time as the ultimate trust signal</text>
  <text x="200" y="745" text-anchor="middle" font-size="10" fill="#A8C4D0">DID age</text>
  <text x="200" y="760" text-anchor="middle" font-size="9" fill="#6AA0B0">When was it created? (on-chain)</text>
  <text x="480" y="745" text-anchor="middle" font-size="10" fill="#A8C4D0">Association age</text>
  <text x="480" y="760" text-anchor="middle" font-size="9" fill="#6AA0B0">How long is this number linked? (attestation provider)</text>
  <text x="760" y="745" text-anchor="middle" font-size="10" fill="#A8C4D0">Last attestation provider change</text>
  <text x="760" y="760" text-anchor="middle" font-size="9" fill="#6AA0B0">When did the attestation provider last change?</text>

  <!-- Legend -->
  <rect x="90" y="795" width="16" height="10" rx="2" fill="#24495C"/>
  <text x="112" y="804" font-size="9" fill="#5A7A8A">Core protocol element</text>
  <rect x="260" y="795" width="16" height="10" rx="2" fill="#FFFFFF" stroke="#1B3A4B" stroke-width="1.5"/>
  <text x="282" y="804" font-size="9" fill="#5A7A8A">Infrastructure</text>
  <rect x="400" y="795" width="16" height="10" rx="2" fill="#E8F0F4" stroke="#5A7A8A" stroke-width="1" stroke-dasharray="4 2"/>
  <text x="422" y="804" font-size="9" fill="#5A7A8A">Optional layer</text>
</svg>
