<svg xmlns="http://www.w3.org/2000/svg" viewBox="0 0 900 560" font-family="Arial, Helvetica, sans-serif">
  <defs>
    <filter id="shadow" x="-2%" y="-2%" width="104%" height="108%">
      <feDropShadow dx="0" dy="2" stdDeviation="3" flood-color="#1B3A4B" flood-opacity="0.1"/>
    </filter>
  </defs>

  <rect width="900" height="560" fill="#FAFBFC"/>
  <text x="450" y="35" text-anchor="middle" font-size="16" font-weight="bold" fill="#1B3A4B" letter-spacing="0.5">Credential types and multi-SIM scenarios</text>

  <!-- EXAMPLE 1: Business with employees -->
  <text x="50" y="70" font-size="13" font-weight="bold" fill="#1B3A4B">Example 1: business with multiple employees</text>

  <!-- Company DID -->
  <rect x="50" y="85" width="180" height="55" rx="4" fill="#1B3A4B" filter="url(#shadow)"/>
  <text x="140" y="108" text-anchor="middle" font-size="12" font-weight="bold" fill="#FFFFFF">Company DID</text>
  <text x="140" y="125" text-anchor="middle" font-size="9" fill="#A8C4D0">Acme B.V.</text>

  <!-- Contract owner credentials -->
  <rect x="280" y="82" width="190" height="30" rx="3" fill="#24495C"/>
  <text x="375" y="102" text-anchor="middle" font-size="10" fill="#FFFFFF">Contract owner: +31 6 1111</text>
  <rect x="280" y="116" width="190" height="30" rx="3" fill="#24495C"/>
  <text x="375" y="136" text-anchor="middle" font-size="10" fill="#FFFFFF">Contract owner: +31 6 2222</text>
  <rect x="280" y="150" width="190" height="30" rx="3" fill="#24495C"/>
  <text x="375" y="170" text-anchor="middle" font-size="10" fill="#FFFFFF">Contract owner: +31 6 3333</text>

  <line x1="230" y1="112" x2="280" y2="97" stroke="#24495C" stroke-width="1"/>
  <line x1="230" y1="112" x2="280" y2="131" stroke="#24495C" stroke-width="1"/>
  <line x1="230" y1="112" x2="280" y2="165" stroke="#24495C" stroke-width="1"/>

  <!-- Employee DIDs -->
  <rect x="540" y="82" width="155" height="30" rx="3" fill="#E8F0F4" stroke="#24495C" stroke-width="1"/>
  <text x="617" y="102" text-anchor="middle" font-size="10" fill="#1B3A4B">Employee DID 1</text>
  <rect x="540" y="116" width="155" height="30" rx="3" fill="#E8F0F4" stroke="#24495C" stroke-width="1"/>
  <text x="617" y="136" text-anchor="middle" font-size="10" fill="#1B3A4B">Employee DID 2</text>
  <rect x="540" y="150" width="155" height="30" rx="3" fill="#E8F0F4" stroke="#24495C" stroke-width="1"/>
  <text x="617" y="170" text-anchor="middle" font-size="10" fill="#1B3A4B">Employee DID 3</text>

  <!-- End user labels -->
  <text x="505" y="102" text-anchor="middle" font-size="8" fill="#5A7A8A">end user</text>
  <line x1="470" y1="97" x2="540" y2="97" stroke="#5A7A8A" stroke-width="1" stroke-dasharray="3 2"/>
  <text x="505" y="136" text-anchor="middle" font-size="8" fill="#5A7A8A">end user</text>
  <line x1="470" y1="131" x2="540" y2="131" stroke="#5A7A8A" stroke-width="1" stroke-dasharray="3 2"/>
  <text x="505" y="170" text-anchor="middle" font-size="8" fill="#5A7A8A">end user</text>
  <line x1="470" y1="165" x2="540" y2="165" stroke="#5A7A8A" stroke-width="1" stroke-dasharray="3 2"/>

  <!-- Annotation -->
  <rect x="730" y="100" width="140" height="56" rx="3" fill="#FFF8E1" stroke="#C8A415" stroke-width="1"/>
  <text x="800" y="118" text-anchor="middle" font-size="9" fill="#8A7212">Contract owner</text>
  <text x="800" y="130" text-anchor="middle" font-size="9" fill="#8A7212">!= end user</text>
  <text x="800" y="146" text-anchor="middle" font-size="9" fill="#8A7212">1 DID can own</text>
  <text x="800" y="158" text-anchor="middle" font-size="9" fill="#8A7212">multiple contracts</text>

  <!-- EXAMPLE 2: Family plan -->
  <text x="50" y="220" font-size="13" font-weight="bold" fill="#1B3A4B">Example 2: family plan</text>

  <!-- Parent DID -->
  <rect x="50" y="235" width="180" height="55" rx="4" fill="#1B3A4B" filter="url(#shadow)"/>
  <text x="140" y="258" text-anchor="middle" font-size="12" font-weight="bold" fill="#FFFFFF">Parent DID</text>
  <text x="140" y="275" text-anchor="middle" font-size="9" fill="#A8C4D0">Contract holder</text>

  <rect x="280" y="235" width="190" height="30" rx="3" fill="#24495C"/>
  <text x="375" y="255" text-anchor="middle" font-size="10" fill="#FFFFFF">Contract owner: +31 6 4444</text>
  <rect x="280" y="269" width="190" height="30" rx="3" fill="#24495C"/>
  <text x="375" y="289" text-anchor="middle" font-size="10" fill="#FFFFFF">Contract owner: +31 6 5555</text>

  <line x1="230" y1="262" x2="280" y2="250" stroke="#24495C" stroke-width="1"/>
  <line x1="230" y1="262" x2="280" y2="284" stroke="#24495C" stroke-width="1"/>

  <!-- Parent also end user of first -->
  <rect x="540" y="235" width="155" height="30" rx="3" fill="#E8F0F4" stroke="#24495C" stroke-width="1"/>
  <text x="617" y="255" text-anchor="middle" font-size="10" fill="#1B3A4B">Parent DID</text>
  <text x="505" y="255" text-anchor="middle" font-size="8" fill="#5A7A8A">end user</text>
  <line x1="470" y1="250" x2="540" y2="250" stroke="#5A7A8A" stroke-width="1" stroke-dasharray="3 2"/>

  <!-- Child is end user of second -->
  <rect x="540" y="269" width="155" height="30" rx="3" fill="#E8F0F4" stroke="#24495C" stroke-width="1"/>
  <text x="617" y="289" text-anchor="middle" font-size="10" fill="#1B3A4B">Child DID</text>
  <text x="505" y="289" text-anchor="middle" font-size="8" fill="#5A7A8A">end user</text>
  <line x1="470" y1="284" x2="540" y2="284" stroke="#5A7A8A" stroke-width="1" stroke-dasharray="3 2"/>

  <rect x="730" y="250" width="140" height="42" rx="3" fill="#FFF8E1" stroke="#C8A415" stroke-width="1"/>
  <text x="800" y="268" text-anchor="middle" font-size="9" fill="#8A7212">Parent owns both,</text>
  <text x="800" y="282" text-anchor="middle" font-size="9" fill="#8A7212">child uses one</text>

  <!-- EXAMPLE 3: Dual SIM individual -->
  <text x="50" y="340" font-size="13" font-weight="bold" fill="#1B3A4B">Example 3: individual with dual SIM</text>

  <!-- Person DID -->
  <rect x="50" y="355" width="180" height="55" rx="4" fill="#1B3A4B" filter="url(#shadow)"/>
  <text x="140" y="378" text-anchor="middle" font-size="12" font-weight="bold" fill="#FFFFFF">Personal DID</text>
  <text x="140" y="395" text-anchor="middle" font-size="9" fill="#A8C4D0">One person, two numbers</text>

  <rect x="280" y="352" width="190" height="28" rx="3" fill="#24495C"/>
  <text x="375" y="370" text-anchor="middle" font-size="10" fill="#FFFFFF">End user: +31 6 7777 (privé)</text>
  <rect x="280" y="384" width="230" height="28" rx="3" fill="#24495C"/>
  <text x="395" y="402" text-anchor="middle" font-size="10" fill="#FFFFFF">End user: +31 6 8888 (zakelijk)</text>

  <line x1="230" y1="382" x2="280" y2="366" stroke="#24495C" stroke-width="1"/>
  <line x1="230" y1="382" x2="280" y2="398" stroke="#24495C" stroke-width="1"/>

  <!-- Resolver labels -->
  <rect x="540" y="352" width="110" height="28" rx="3" fill="#F4F7F9" stroke="#5A7A8A" stroke-width="1"/>
  <text x="595" y="370" text-anchor="middle" font-size="10" fill="#5A7A8A">Odido</text>
  <line x1="470" y1="366" x2="540" y2="366" stroke="#5A7A8A" stroke-width="1" stroke-dasharray="3 2"/>

  <rect x="580" y="384" width="110" height="28" rx="3" fill="#F4F7F9" stroke="#5A7A8A" stroke-width="1"/>
  <text x="635" y="402" text-anchor="middle" font-size="10" fill="#5A7A8A">KPN</text>
  <line x1="510" y1="398" x2="580" y2="398" stroke="#5A7A8A" stroke-width="1" stroke-dasharray="3 2"/>

  <rect x="730" y="365" width="140" height="42" rx="3" fill="#FFF8E1" stroke="#C8A415" stroke-width="1"/>
  <text x="800" y="383" text-anchor="middle" font-size="9" fill="#8A7212">1 DID, multiple numbers,</text>
  <text x="800" y="397" text-anchor="middle" font-size="9" fill="#8A7212">different resolvers</text>

  <!-- KEY RULES -->
  <text x="50" y="455" font-size="13" font-weight="bold" fill="#1B3A4B">Key rules</text>
  <rect x="50" y="468" width="800" height="80" rx="4" fill="#FFFFFF" stroke="#1B3A4B" stroke-width="1.5"/>

  <circle cx="80" cy="493" r="10" fill="#24495C"/>
  <text x="80" y="497" text-anchor="middle" font-size="11" font-weight="bold" fill="#FFFFFF">1</text>
  <text x="100" y="493" font-size="10" fill="#1B3A4B">One instance can only be linked to </text>
  <text x="100" y="506" font-size="10" font-weight="bold" fill="#1B3A4B">one DID at a time</text>

  <circle cx="350" cy="493" r="10" fill="#24495C"/>
  <text x="350" y="497" text-anchor="middle" font-size="11" font-weight="bold" fill="#FFFFFF">2</text>
  <text x="370" y="493" font-size="10" fill="#1B3A4B">One DID can hold </text>
  <text x="370" y="506" font-size="10" font-weight="bold" fill="#1B3A4B">multiple instances</text>

  <circle cx="600" cy="493" r="10" fill="#24495C"/>
  <text x="600" y="497" text-anchor="middle" font-size="11" font-weight="bold" fill="#FFFFFF">3</text>
  <text x="620" y="493" font-size="10" fill="#1B3A4B">Contract owner and end user</text>
  <text x="620" y="506" font-size="10" font-weight="bold" fill="#1B3A4B">can be different DIDs</text>

  <text x="100" y="535" font-size="10" fill="#5A7A8A">Each credential is independently verified by its resolver and can be independently revoked without affecting the others</text>
</svg>
